<svg width="1500" height="503" viewBox="0 0 1500 503" fill="none" xmlns="http://www.w3.org/2000/svg">
<g clip-path="url(#clip0_7_31)">
<path d="M457.73 50.3764C453.282 51.8772 450.27 55.7411 448.986 60.0615C447.703 64.3819 447.918 69.3299 449.564 74.2076C451.21 79.0852 454.038 83.1566 457.676 85.8162C461.315 88.4759 466.05 89.7209 470.499 88.2201C474.947 86.7192 477.959 82.8554 479.242 78.535C480.525 74.2146 480.31 69.2665 478.664 64.3889C477.018 59.5113 474.191 55.4399 470.552 52.7802C466.913 50.1206 462.178 48.8755 457.73 50.3764ZM478.664 64.3889C480.31 69.2665 483.138 73.3379 486.776 75.9975C490.415 78.6572 495.155 79.9008 499.599 78.4014C504.047 76.9005 507.059 73.0367 508.342 68.7163C509.625 64.3959 509.41 59.4478 507.764 54.5702C506.118 49.6926 503.291 45.6212 499.652 42.9616C496.013 40.3019 491.278 39.0568 486.83 40.5577C482.382 42.0586 479.37 45.9224 478.086 50.2428C476.803 54.5632 477.018 59.5113 478.664 64.3889ZM460.567 58.7861C461.864 58.3485 463.516 58.5219 465.442 59.9232C467.351 61.3259 469.253 63.9439 470.35 67.1942C471.447 70.4446 471.521 73.6839 470.851 75.9521C470.167 78.2342 468.958 79.3727 467.661 79.8104C466.364 80.248 464.713 80.0745 462.786 78.6733C460.877 77.2706 458.975 74.6526 457.878 71.4022C456.782 68.1519 456.707 64.9125 457.378 62.6444C458.061 60.3622 459.27 59.2237 460.567 58.7861ZM489.667 48.9674C490.964 48.5298 492.616 48.7032 494.542 50.1045C496.451 51.5072 498.353 54.1252 499.45 57.3755C500.547 60.6259 500.621 63.8653 499.951 66.1334C499.267 68.4156 498.058 69.554 496.761 69.9917C495.464 70.4293 493.813 70.2559 491.886 68.8546C489.977 67.4519 488.075 64.8339 486.978 61.5835C485.882 58.3332 485.807 55.0938 486.478 52.8257C487.161 50.5435 488.37 49.405 489.667 48.9674ZM446.875 86.8237C442.427 88.3246 439.415 92.1884 438.132 96.5088C436.849 100.829 437.064 105.777 438.71 110.655C440.356 115.533 443.183 119.604 446.822 122.264C450.461 124.923 455.196 126.168 459.644 124.667C464.092 123.167 467.104 119.303 468.388 114.982C469.671 110.662 469.456 105.714 467.81 100.836C466.164 95.9586 463.336 91.8872 459.698 89.2275C456.059 86.5679 451.324 85.3228 446.875 86.8237ZM517.547 62.9783C513.099 64.4792 510.087 68.343 508.803 72.6634C507.52 76.9838 507.735 81.9319 509.381 86.8095C511.027 91.6871 513.855 95.7585 517.493 98.4181C521.132 101.078 525.867 102.323 530.316 100.822C534.764 99.3211 537.776 95.4573 539.059 91.1369C540.342 86.8165 540.127 81.8684 538.481 76.9908C536.835 72.1132 534.008 68.0418 530.369 65.3822C526.73 62.7225 521.995 61.4775 517.547 62.9783ZM449.713 95.2334C451.01 94.7958 452.661 94.9692 454.588 96.3705C456.497 97.7732 458.399 100.391 459.496 103.642C460.592 106.892 460.667 110.131 459.996 112.399C459.313 114.682 458.104 115.82 456.807 116.258C455.51 116.695 453.858 116.522 451.932 115.121C450.024 113.722 448.121 111.1 447.024 107.85C445.927 104.599 445.853 101.36 446.523 99.0917C447.207 96.8095 448.416 95.671 449.713 95.2334ZM520.384 71.388C521.681 70.9504 523.333 71.1238 525.259 72.5251C527.168 73.9278 529.07 76.5458 530.167 79.7962C531.264 83.0465 531.338 86.2859 530.668 88.554C529.984 90.8362 528.775 91.9747 527.478 92.4123C526.181 92.8499 524.53 92.6765 522.603 91.2752C520.694 89.8725 518.792 87.2545 517.695 84.0042C516.599 80.7538 516.524 77.5144 517.195 75.2463C517.878 72.9641 519.087 71.8257 520.384 71.388ZM487.886 91.7204C482.345 93.5902 479.706 98.5319 478.884 102.369C478.075 106.201 477.808 109.251 477.077 110.734C476.663 111.609 473.167 114.489 469.712 118.057C467.986 119.844 466.365 121.997 465.335 124.803C464.292 127.614 464.115 131.069 465.268 134.488C467.993 142.561 476.802 146.989 484.784 144.296C488.384 143.081 491.745 140.636 495.069 138.343C498.402 136.02 502.074 133.769 502.074 133.769C502.074 133.769 506.359 133.335 510.406 133.159C514.444 132.967 518.6 132.876 522.2 131.662C530.181 128.969 534.508 120.109 531.784 112.035C530.657 108.697 528.409 106.055 525.911 104.51C523.416 102.949 520.838 102.334 518.388 101.919C513.478 101.094 508.796 100.706 508.001 100.3C506.668 99.6401 504.619 97.2731 501.622 94.7058C498.626 92.1245 493.457 89.8408 487.886 91.7204ZM490.724 100.13C493.467 99.2044 493.998 99.7747 495.936 101.444C497.886 103.104 500.01 106.326 504.06 108.365C508.653 110.656 513.24 109.951 516.968 110.585C518.834 110.902 520.345 111.399 521.364 112.029C522.376 112.657 522.965 113.344 523.467 114.832C524.659 118.364 522.851 122.065 519.359 123.244C518.154 123.65 513.959 124.035 509.987 124.205C506.02 124.386 502.626 124.206 499.233 125.351C495.841 126.495 493.25 128.695 489.983 130.954C486.721 133.226 483.151 135.461 481.945 135.868C478.453 137.046 474.773 135.196 473.581 131.664C473.009 129.97 473.065 128.982 473.466 127.891C473.868 126.805 474.855 125.53 476.133 124.214C478.687 121.572 482.781 119.488 485.095 114.75C487.096 110.623 486.779 106.664 487.319 104.187C487.837 101.718 487.937 101.052 490.714 100.115L490.724 100.13Z" fill="white" fill-opacity="0.4"/>
<path d="M1074.82 216.971C1069.49 217.77 1065.31 221.529 1062.99 226.152C1060.66 230.774 1059.91 236.409 1060.79 242.252C1061.66 248.095 1064.04 253.265 1067.61 257.003C1071.19 260.742 1076.29 263.103 1081.62 262.304C1086.94 261.505 1091.13 257.746 1093.45 253.124C1095.77 248.501 1096.52 242.866 1095.65 237.024C1094.77 231.181 1092.4 226.01 1088.82 222.272C1085.25 218.533 1080.15 216.172 1074.82 216.971ZM1095.65 237.024C1096.52 242.866 1098.9 248.037 1102.47 251.775C1106.05 255.514 1111.15 257.874 1116.48 257.076C1121.8 256.277 1125.99 252.518 1128.31 247.895C1130.63 243.273 1131.38 237.638 1130.51 231.795C1129.63 225.952 1127.25 220.782 1123.68 217.044C1120.1 213.305 1115 210.944 1109.68 211.743C1104.35 212.542 1100.17 216.301 1097.84 220.923C1095.52 225.546 1094.77 231.181 1095.65 237.024ZM1076.33 227.045C1077.88 226.812 1079.71 227.341 1081.61 229.313C1083.48 231.282 1085.1 234.624 1085.69 238.517C1086.27 242.411 1085.7 246.086 1084.49 248.514C1083.25 250.954 1081.66 251.997 1080.11 252.23C1078.55 252.463 1076.72 251.934 1074.83 249.963C1072.95 247.993 1071.33 244.651 1070.75 240.758C1070.16 236.864 1070.73 233.189 1071.95 230.761C1073.18 228.321 1074.77 227.278 1076.33 227.045ZM1111.19 221.817C1112.74 221.584 1114.57 222.113 1116.47 224.084C1118.34 226.054 1119.96 229.396 1120.55 233.289C1121.13 237.183 1120.56 240.858 1119.35 243.286C1118.11 245.726 1116.52 246.769 1114.96 247.002C1113.41 247.235 1111.58 246.706 1109.69 244.735C1107.81 242.765 1106.19 239.423 1105.61 235.53C1105.02 231.636 1105.59 227.961 1106.81 225.533C1108.04 223.093 1109.63 222.05 1111.19 221.817ZM1055.21 255.964C1049.88 256.764 1045.7 260.522 1043.37 265.145C1041.05 269.768 1040.3 275.402 1041.18 281.245C1042.05 287.088 1044.43 292.258 1048 295.997C1051.58 299.735 1056.68 302.097 1062.01 301.298C1067.33 300.499 1071.52 296.74 1073.84 292.117C1076.16 287.494 1076.91 281.86 1076.04 276.017C1075.16 270.174 1072.78 265.004 1069.21 261.265C1065.63 257.527 1060.53 255.165 1055.21 255.964ZM1139.86 243.268C1134.54 244.067 1130.35 247.825 1128.03 252.448C1125.71 257.071 1124.96 262.705 1125.83 268.548C1126.71 274.391 1129.08 279.562 1132.66 283.3C1136.23 287.039 1141.33 289.4 1146.66 288.601C1151.99 287.802 1156.17 284.043 1158.49 279.42C1160.82 274.797 1161.57 269.163 1160.69 263.32C1159.82 257.477 1157.44 252.307 1153.87 248.569C1150.29 244.83 1145.19 242.469 1139.86 243.268ZM1056.72 266.038C1058.27 265.805 1060.1 266.334 1062 268.306C1063.87 270.276 1065.49 273.617 1066.08 277.511C1066.66 281.404 1066.09 285.079 1064.88 287.507C1063.64 289.948 1062.05 290.991 1060.49 291.224C1058.94 291.457 1057.11 290.928 1055.22 288.956C1053.34 286.991 1051.72 283.645 1051.14 279.751C1050.55 275.858 1051.12 272.183 1052.34 269.755C1053.57 267.314 1055.16 266.272 1056.72 266.038ZM1141.37 253.342C1142.93 253.109 1144.76 253.638 1146.65 255.609C1148.53 257.579 1150.15 260.92 1150.73 264.814C1151.32 268.708 1150.75 272.383 1149.53 274.81C1148.3 277.251 1146.71 278.294 1145.15 278.527C1143.6 278.76 1141.77 278.231 1139.87 276.259C1138 274.29 1136.38 270.948 1135.79 267.055C1135.21 263.161 1135.78 259.486 1136.99 257.058C1138.23 254.617 1139.82 253.575 1141.37 253.342ZM1100.56 269.764C1093.92 270.76 1089.94 275.811 1088.24 279.981C1086.55 284.148 1085.64 287.541 1084.51 289.069C1083.87 289.974 1079.34 292.523 1074.71 295.859C1072.4 297.529 1070.14 299.635 1068.41 302.598C1066.66 305.564 1065.77 309.433 1066.38 313.528C1067.83 323.199 1076.89 329.977 1086.45 328.543C1090.77 327.896 1095.06 325.811 1099.27 323.891C1103.51 321.937 1108.11 320.134 1108.11 320.134C1108.11 320.134 1113.04 320.508 1117.65 321.125C1122.25 321.722 1126.96 322.457 1131.28 321.811C1140.84 320.377 1147.51 311.238 1146.06 301.567C1145.46 297.568 1143.45 294.129 1140.94 291.88C1138.44 289.613 1135.65 288.399 1132.96 287.436C1127.58 285.514 1122.37 284.132 1121.56 283.513C1120.18 282.499 1118.34 279.411 1115.48 275.906C1112.61 272.386 1107.23 268.763 1100.56 269.764ZM1102.07 279.838C1105.35 279.345 1105.84 280.097 1107.69 282.373C1109.56 284.643 1111.31 288.711 1115.48 291.831C1120.2 295.345 1125.53 295.474 1129.61 296.942C1131.66 297.675 1133.27 298.542 1134.29 299.46C1135.31 300.373 1135.83 301.267 1136.1 303.051C1136.73 307.282 1133.95 311.099 1129.76 311.726C1128.32 311.943 1123.5 311.532 1118.98 310.923C1114.46 310.329 1110.66 309.441 1106.6 310.05C1102.54 310.66 1099.16 312.623 1095.02 314.517C1090.87 316.426 1086.39 318.232 1084.94 318.448C1080.76 319.076 1076.98 316.244 1076.34 312.013C1076.04 309.983 1076.3 308.878 1076.97 307.726C1077.65 306.58 1079.02 305.339 1080.73 304.109C1084.14 301.639 1089.19 300.11 1092.76 295.222C1095.85 290.963 1096.29 286.426 1097.4 283.736C1098.49 281.05 1098.73 280.318 1102.06 279.819L1102.07 279.838Z" fill="white" fill-opacity="0.4"/>
<path d="M84.5879 230.112C80.1199 228.714 75.4241 230.063 71.8545 232.795C68.2849 235.526 65.5562 239.644 64.0223 244.543C62.4884 249.443 62.3807 254.385 63.7552 258.665C65.1297 262.944 68.2188 266.727 72.6868 268.125C77.1549 269.524 81.8507 268.175 85.4202 265.443C88.9898 262.711 91.7186 258.594 93.2525 253.695C94.7864 248.795 94.8941 243.853 93.5196 239.573C92.1451 235.293 89.056 231.511 84.5879 230.112ZM93.2525 253.695C91.7186 258.594 91.6109 263.536 92.9854 267.816C94.3598 272.096 97.4531 275.879 101.917 277.277C106.385 278.676 111.081 277.326 114.65 274.594C118.22 271.863 120.949 267.745 122.483 262.846C124.017 257.946 124.124 253.004 122.75 248.724C121.375 244.445 118.286 240.663 113.818 239.264C109.35 237.865 104.654 239.214 101.085 241.946C97.5151 244.678 94.7864 248.795 93.2525 253.695ZM81.9432 238.56C83.2461 238.968 84.4762 240.076 85.2082 242.337C85.9248 244.588 85.9232 247.815 84.901 251.08C83.8788 254.345 82.0385 257.001 80.1675 258.437C78.2771 259.877 76.6344 260.086 75.3315 259.678C74.0287 259.27 72.7985 258.162 72.0665 255.901C71.3499 253.65 71.3516 250.423 72.3738 247.158C73.3959 243.893 75.2363 241.237 77.1073 239.8C78.9977 238.361 80.6404 238.152 81.9432 238.56ZM111.173 247.711C112.476 248.119 113.706 249.228 114.438 251.488C115.155 253.739 115.153 256.966 114.131 260.231C113.109 263.496 111.269 266.152 109.398 267.589C107.507 269.028 105.865 269.237 104.562 268.829C103.259 268.421 102.029 267.313 101.297 265.052C100.58 262.801 100.582 259.574 101.604 256.309C102.626 253.044 104.466 250.388 106.337 248.952C108.228 247.512 109.871 247.303 111.173 247.711ZM54.4528 253.141C49.9848 251.743 45.289 253.092 41.7195 255.824C38.1499 258.555 35.4211 262.673 33.8872 267.572C32.3533 272.472 32.2456 277.414 33.6201 281.694C34.9946 285.973 38.0837 289.756 42.5518 291.154C47.0198 292.553 51.7156 291.204 55.2852 288.472C58.8547 285.74 61.5835 281.623 63.1174 276.724C64.6513 271.824 64.759 266.882 63.3845 262.602C62.01 258.322 58.9209 254.54 54.4528 253.141ZM125.44 275.366C120.972 273.967 116.277 275.317 112.707 278.048C109.137 280.78 106.409 284.897 104.875 289.797C103.341 294.696 103.233 299.639 104.608 303.918C105.982 308.198 109.071 311.98 113.539 313.379C118.007 314.778 122.703 313.428 126.273 310.697C129.842 307.965 132.571 303.848 134.105 298.948C135.639 294.049 135.747 289.106 134.372 284.827C132.998 280.547 129.908 276.765 125.44 275.366ZM51.8082 261.589C53.111 261.997 54.3412 263.105 55.0732 265.366C55.7898 267.617 55.7881 270.844 54.7659 274.109C53.7437 277.374 51.9034 280.03 50.0324 281.466C48.142 282.906 46.4993 283.115 45.1965 282.707C43.8936 282.299 42.6635 281.191 41.9315 278.93C41.2135 276.683 41.2165 273.452 42.2387 270.187C43.2609 266.922 45.1012 264.266 46.9722 262.829C48.8626 261.39 50.5053 261.181 51.8082 261.589ZM122.796 283.813C124.099 284.221 125.329 285.33 126.061 287.59C126.777 289.841 126.776 293.069 125.753 296.334C124.731 299.598 122.891 302.255 121.02 303.691C119.13 305.13 117.487 305.34 116.184 304.932C114.881 304.524 113.651 303.415 112.919 301.155C112.202 298.904 112.204 295.676 113.226 292.412C114.248 289.147 116.089 286.49 117.96 285.054C119.85 283.615 121.493 283.405 122.796 283.813ZM84.6572 281.148C79.091 279.406 74.0637 281.843 71.1504 284.456C68.2497 287.072 66.2447 289.376 64.7849 290.143C63.9384 290.606 59.4288 290.878 54.5497 291.729C52.1094 292.157 49.5388 292.943 47.0615 294.602C44.5717 296.257 42.402 298.941 41.327 302.374C38.7881 310.484 43.2964 319.223 51.3139 321.733C54.93 322.865 59.0752 322.864 63.1013 322.965C67.152 323.046 71.4338 323.385 71.4338 323.385C71.4338 323.385 75.1444 325.548 78.5124 327.781C81.8815 329.995 85.2861 332.36 88.9023 333.492C96.9197 336.002 105.607 331.394 108.146 323.285C109.196 319.931 108.932 316.482 107.823 313.769C106.727 311.047 105.008 309.039 103.275 307.267C99.8001 303.721 96.2508 300.662 95.8482 299.868C95.1594 298.553 94.8955 295.442 93.9849 291.614C93.0825 287.775 90.2527 282.9 84.6572 281.148ZM82.0126 289.596C84.7686 290.459 84.8618 291.23 85.4461 293.713C86.0443 296.196 85.8676 300.041 87.9378 304.061C90.2985 308.603 94.4116 310.725 97.0467 313.424C98.3664 314.774 99.2931 316.061 99.7446 317.167C100.193 318.267 100.265 319.166 99.7968 320.661C98.686 324.209 95.0573 326.134 91.5496 325.036C90.3387 324.657 86.7295 322.507 83.4271 320.313C80.1209 318.133 77.4886 315.996 74.0812 314.929C70.6738 313.862 67.293 314.116 63.3335 314.022C59.37 313.941 55.179 313.649 53.968 313.27C50.4604 312.172 48.5771 308.521 49.6879 304.973C50.2208 303.271 50.8453 302.507 51.8082 301.862C52.7698 301.222 54.3134 300.773 56.1167 300.461C59.7259 299.829 64.2504 300.549 68.8962 298.085C72.9316 295.931 74.9981 292.552 76.8862 290.871C78.7535 289.183 79.2243 288.704 82.0137 289.578L82.0126 289.596Z" fill="white" fill-opacity="0.4"/>
<path d="M414.626 262.022C399.213 254.732 380.638 261.377 373.347 276.79C370.033 283.796 370.45 291.125 372.407 298.044L305.002 322.152C302.123 315.569 297.796 309.639 290.79 306.325C275.377 299.034 256.802 305.679 249.511 321.092C242.221 336.505 248.866 355.08 264.279 362.371C256.988 377.783 263.633 396.359 279.046 403.649C294.459 410.94 313.034 404.294 320.325 388.882C323.639 381.876 323.222 374.546 321.265 367.628L388.673 343.512C391.548 350.102 395.876 356.033 402.882 359.347C418.295 366.638 436.87 359.992 444.16 344.58C451.451 329.167 444.806 310.591 429.393 303.301C436.684 287.888 430.038 269.313 414.626 262.022ZM407.998 276.034C415.823 279.735 419.083 288.848 415.381 296.673C414.812 297.878 414.039 299.022 412.857 300.306L409.582 303.841L411.298 308.133L412.339 311.043L413.735 315.45L418.509 316.105C420.238 316.348 421.56 316.742 422.765 317.312C430.591 321.014 433.851 330.126 430.149 337.952C426.447 345.777 417.335 349.037 409.51 345.335C404.395 342.916 401.46 338.21 400.895 332.953L399.708 323.012L390.572 326.467L308.985 355.654L299.738 358.782L305.115 367.224C308.016 371.64 308.732 377.14 306.313 382.254C302.612 390.079 293.499 393.339 285.674 389.638C277.848 385.936 274.588 376.824 278.29 368.998C278.86 367.793 279.633 366.65 280.814 365.366L284.09 361.831L282.377 357.532L281.336 354.639L279.936 350.221L275.155 349.563C273.434 349.323 272.111 348.929 270.906 348.359C263.081 344.658 259.821 335.545 263.523 327.72C267.224 319.894 276.337 316.635 284.162 320.336C289.276 322.755 292.211 327.461 292.777 332.719L293.967 342.653L303.1 339.205L384.687 310.017L393.941 306.893L388.557 298.447C385.656 294.032 384.939 288.532 387.358 283.418C391.06 275.592 400.172 272.332 407.998 276.034Z" fill="white" fill-opacity="0.4"/>
<path d="M719.923 311.196C727.024 295.695 720.151 277.203 704.65 270.102C697.604 266.875 690.279 267.381 683.385 269.423L658.451 202.32C664.998 199.36 670.875 194.96 674.102 187.914C681.203 172.413 674.33 153.921 658.829 146.82C643.327 139.72 624.835 146.593 617.735 162.094C602.233 154.993 583.741 161.867 576.641 177.368C569.54 192.869 576.413 211.361 591.914 218.462C598.96 221.689 606.285 221.183 613.178 219.141L638.12 286.247C631.566 289.203 625.689 293.604 622.462 300.65C615.361 316.151 622.234 334.643 637.735 341.744C653.236 348.844 671.729 341.971 678.829 326.47C694.33 333.57 712.823 326.697 719.923 311.196ZM705.831 304.741C702.226 312.611 693.155 315.983 685.284 312.378C684.072 311.823 682.92 311.065 681.621 309.899L678.046 306.667L673.775 308.436L670.878 309.513L666.488 310.963L665.892 315.745C665.67 317.476 665.293 318.803 664.737 320.015C661.132 327.885 652.061 331.257 644.19 327.652C636.32 324.046 632.948 314.975 636.554 307.105C638.91 301.961 643.579 298.969 648.829 298.339L658.755 297.029L655.188 287.936L625 206.714L621.759 197.506L613.383 202.987C609.004 205.942 603.513 206.726 598.369 204.37C590.499 200.765 587.127 191.693 590.732 183.823C594.338 175.952 603.409 172.581 611.279 176.186C612.491 176.741 613.644 177.499 614.943 178.665L618.518 181.897L622.796 180.131L625.676 179.055L630.075 177.601L630.675 172.812C630.894 171.088 631.271 169.761 631.826 168.549C635.432 160.679 644.503 157.307 652.373 160.912C660.244 164.517 663.615 173.589 660.01 181.459C657.654 186.603 652.984 189.595 647.735 190.225L637.816 191.538L641.376 200.628L671.564 281.85L674.802 291.065L683.18 285.577C687.56 282.622 693.051 281.838 698.195 284.194C706.065 287.799 709.437 296.871 705.831 304.741Z" fill="white" fill-opacity="0.4"/>
<path d="M1097.04 117.797C1093.73 102.749 1078.72 93.1414 1063.67 96.4463C1056.83 97.9486 1051.82 102.297 1047.96 107.519L993.472 72.6522C996.588 66.9562 998.436 60.5849 996.934 53.745C993.629 38.6972 978.613 29.0894 963.565 32.3944C948.518 35.6993 938.91 50.7152 942.215 65.763C927.167 69.0679 917.559 84.0838 920.864 99.1316C924.169 114.179 939.185 123.787 954.233 120.482C961.073 118.98 966.083 114.632 969.948 109.409L1024.44 144.275C1021.32 149.972 1019.47 156.344 1020.97 163.184C1024.27 178.231 1039.29 187.839 1054.34 184.534C1069.39 181.229 1078.99 166.213 1075.69 151.166C1090.74 147.861 1100.34 132.845 1097.04 117.797ZM1083.36 120.801C1085.04 128.442 1080.32 135.808 1072.68 137.486C1071.51 137.744 1070.26 137.824 1068.69 137.689L1064.36 137.3L1062.24 140.899L1060.73 143.252L1058.35 146.685L1060.52 150.46C1061.3 151.83 1061.75 152.994 1062.01 154.17C1063.69 161.81 1058.97 169.176 1051.33 170.854C1043.69 172.532 1036.33 167.819 1034.65 160.179C1033.55 155.186 1035.3 150.487 1038.74 147.178L1045.19 140.835L1037.67 136.213L971.721 94.0132L964.375 89.1307L961.311 97.6402C959.758 102.154 956.221 105.706 951.228 106.802C943.588 108.48 936.222 103.767 934.544 96.1271C932.866 88.4869 937.579 81.1208 945.219 79.4428C946.396 79.1844 947.64 79.1047 949.211 79.24L953.548 79.6282L955.676 76.0277L957.169 73.6851L959.553 70.2433L957.382 66.4613C956.602 65.0982 956.153 63.9349 955.895 62.7585C954.217 55.1183 958.93 47.7522 966.57 46.0742C974.21 44.3962 981.576 49.1093 983.254 56.7495C984.351 61.7426 982.608 66.4416 979.162 69.7509L972.718 76.0919L980.23 80.7158L1046.18 122.915L1053.53 127.805L1056.59 119.288C1058.15 114.774 1061.68 111.223 1066.68 110.126C1074.32 108.448 1081.68 113.161 1083.36 120.801Z" fill="white" fill-opacity="0.4"/>
<path d="M1283.01 422.296C1301.99 427.043 1321.4 415.398 1326.15 396.419C1328.31 387.793 1326.19 379.638 1322.44 372.292L1392.88 330.044C1397.59 336.806 1403.79 342.508 1412.42 344.666C1431.4 349.412 1450.81 337.767 1455.56 318.789C1460.3 299.81 1448.66 280.399 1429.68 275.653C1434.42 256.675 1422.78 237.264 1403.8 232.517C1384.82 227.771 1365.41 239.416 1360.67 258.394C1358.51 267.021 1360.62 275.176 1364.38 282.521L1293.93 324.778C1289.22 318.008 1283.02 312.306 1274.39 310.148C1255.42 305.402 1236 317.047 1231.26 336.025C1226.51 355.004 1238.16 374.415 1257.14 379.161C1252.39 398.139 1264.03 417.55 1283.01 422.296ZM1287.33 405.043C1277.69 402.634 1271.98 393.111 1274.39 383.475C1274.76 381.992 1275.37 380.532 1276.41 378.821L1279.31 374.109L1276.41 369.664L1274.59 366.623L1272.03 361.977L1266.51 362.311C1264.51 362.425 1262.93 362.279 1261.45 361.908C1251.81 359.498 1246.1 349.976 1248.51 340.34C1250.92 330.704 1260.44 324.992 1270.08 327.401C1276.38 328.976 1280.74 333.613 1282.55 339.402L1286.12 350.322L1295.62 344.385L1380.88 293.239L1390.58 287.646L1382.64 279.353C1378.38 275.035 1376.34 269.006 1377.92 262.709C1380.33 253.073 1389.85 247.361 1399.49 249.771C1409.12 252.18 1414.83 261.703 1412.43 271.338C1412.05 272.822 1411.44 274.282 1410.4 275.992L1407.51 280.704L1410.4 285.158L1412.22 288.18L1414.79 292.836L1420.31 292.505C1422.3 292.388 1423.88 292.535 1425.36 292.906C1435 295.316 1440.71 304.838 1438.3 314.474C1435.89 324.11 1426.37 329.822 1416.73 327.412C1410.44 325.838 1406.08 321.2 1404.26 315.412L1400.69 304.501L1391.19 310.429L1305.93 361.575L1296.22 367.166L1304.18 375.461C1308.43 379.779 1310.47 385.807 1308.9 392.105C1306.49 401.741 1296.96 407.453 1287.33 405.043Z" fill="white" fill-opacity="0.4"/>
<circle cx="357" cy="181" r="26" fill="white" fill-opacity="0.32"/>
<circle cx="281.5" cy="234.5" r="15.5" fill="white" fill-opacity="0.32"/>
<circle cx="84.5" cy="56.5" r="15.5" fill="white" fill-opacity="0.32"/>
<circle cx="224.5" cy="105.5" r="13.5" fill="white" fill-opacity="0.32"/>
<circle cx="840.5" cy="96.5" r="22.5" fill="white" fill-opacity="0.32"/>
<circle cx="122.5" cy="460.5" r="22.5" fill="white" fill-opacity="0.32"/>
<circle cx="647.5" cy="428.5" r="28.5" fill="white" fill-opacity="0.32"/>
<circle cx="601" cy="489" r="14" fill="white" fill-opacity="0.32"/>
<circle cx="533.5" cy="441.5" r="10.5" fill="white" fill-opacity="0.32"/>
<circle cx="1126.5" cy="454.5" r="25.5" fill="white" fill-opacity="0.32"/>
<circle cx="1092.5" cy="57.5" r="16.5" fill="white" fill-opacity="0.32"/>
<circle cx="1359.5" cy="181.5" r="16.5" fill="white" fill-opacity="0.32"/>
<circle cx="1276" cy="163" r="8" fill="white" fill-opacity="0.32"/>
<path d="M803.109 406.283C798.494 405.492 794.02 407.456 790.846 410.639C787.673 413.822 785.517 418.266 784.65 423.326C783.782 428.386 784.334 433.299 786.267 437.357C788.199 441.415 791.765 444.752 796.38 445.543C800.994 446.334 805.468 444.371 808.642 441.188C811.816 438.005 813.971 433.561 814.839 428.5C815.706 423.44 815.154 418.528 813.222 414.469C811.289 410.411 807.723 407.074 803.109 406.283ZM814.839 428.5C813.971 433.561 814.523 438.473 816.456 442.532C818.388 446.59 821.958 449.927 826.569 450.718C831.183 451.509 835.657 449.545 838.831 446.362C842.005 443.179 844.16 438.735 845.028 433.675C845.895 428.615 845.343 423.702 843.411 419.644C841.478 415.586 837.912 412.249 833.298 411.458C828.683 410.667 824.209 412.63 821.035 415.813C817.862 418.996 815.706 423.44 814.839 428.5ZM801.613 415.008C802.959 415.238 804.326 416.173 805.353 418.316C806.363 420.451 806.791 423.65 806.213 427.022C805.635 430.394 804.165 433.272 802.502 434.945C800.821 436.623 799.221 437.049 797.875 436.819C796.529 436.588 795.162 435.653 794.136 433.511C793.126 431.375 792.697 428.176 793.275 424.804C793.853 421.432 795.323 418.555 796.986 416.882C798.668 415.203 800.268 414.777 801.613 415.008ZM831.802 420.182C833.148 420.413 834.515 421.348 835.542 423.49C836.552 425.626 836.98 428.825 836.402 432.197C835.824 435.569 834.354 438.446 832.691 440.119C831.01 441.798 829.41 442.224 828.064 441.993C826.718 441.763 825.351 440.828 824.325 438.685C823.315 436.55 822.886 433.351 823.464 429.979C824.042 426.607 825.512 423.729 827.175 422.056C828.857 420.378 830.457 419.952 831.802 420.182ZM776.311 433.123C771.697 432.332 767.223 434.295 764.049 437.478C760.875 440.661 758.72 445.105 757.852 450.165C756.985 455.226 757.537 460.138 759.469 464.197C761.402 468.255 764.968 471.592 769.582 472.383C774.197 473.174 778.671 471.21 781.845 468.027C785.018 464.844 787.174 460.4 788.041 455.34C788.909 450.28 788.357 445.367 786.424 441.309C784.492 437.25 780.926 433.914 776.311 433.123ZM849.628 445.689C845.013 444.898 840.539 446.862 837.365 450.045C834.191 453.228 832.036 457.672 831.168 462.732C830.301 467.792 830.853 472.705 832.786 476.763C834.718 480.821 838.284 484.158 842.898 484.949C847.513 485.74 851.987 483.777 855.161 480.594C858.334 477.411 860.49 472.967 861.357 467.907C862.225 462.846 861.673 457.934 859.74 453.875C857.808 449.817 854.242 446.48 849.628 445.689ZM774.816 441.847C776.162 442.078 777.529 443.013 778.555 445.155C779.565 447.291 779.994 450.49 779.416 453.862C778.838 457.234 777.368 460.111 775.705 461.784C774.023 463.463 772.423 463.889 771.078 463.658C769.732 463.428 768.365 462.493 767.338 460.35C766.327 458.219 765.9 455.016 766.478 451.644C767.056 448.272 768.526 445.394 770.189 443.721C771.87 442.043 773.47 441.617 774.816 441.847ZM848.132 454.414C849.478 454.644 850.845 455.579 851.871 457.722C852.882 459.857 853.31 463.056 852.732 466.428C852.154 469.8 850.684 472.678 849.021 474.351C847.339 476.029 845.739 476.455 844.394 476.225C843.048 475.994 841.681 475.059 840.654 472.917C839.644 470.781 839.216 467.582 839.794 464.21C840.372 460.838 841.842 457.961 843.505 456.288C845.186 454.609 846.787 454.183 848.132 454.414ZM809.979 456.855C804.23 455.87 799.572 458.955 797.033 461.933C794.507 464.913 792.827 467.462 791.482 468.417C790.705 468.989 786.272 469.859 781.55 471.354C779.188 472.103 776.745 473.224 774.511 475.199C772.264 477.171 770.471 480.119 769.863 483.666C768.428 492.041 774.061 500.101 782.341 501.521C786.076 502.161 790.184 501.608 794.188 501.171C798.213 500.712 802.502 500.477 802.502 500.477C802.502 500.477 806.468 502.127 810.103 503.89C813.737 505.636 817.426 507.526 821.161 508.166C829.442 509.585 837.437 503.861 838.873 495.485C839.466 492.022 838.746 488.638 837.285 486.098C835.836 483.546 833.865 481.784 831.911 480.26C827.995 477.208 824.069 474.65 823.564 473.916C822.707 472.705 822.03 469.657 820.618 465.984C819.212 462.299 815.758 457.845 809.979 456.855ZM808.483 465.579C811.33 466.067 811.525 466.819 812.435 469.202C813.359 471.583 813.696 475.418 816.283 479.126C819.228 483.312 823.587 484.868 826.559 487.191C828.047 488.353 829.136 489.506 829.731 490.542C830.323 491.572 830.513 492.454 830.249 493.998C829.621 497.662 826.281 500.053 822.658 499.433C821.407 499.218 817.544 497.568 813.979 495.834C810.411 494.114 807.518 492.347 803.999 491.744C800.479 491.141 797.163 491.843 793.226 492.277C789.287 492.725 785.094 492.994 783.844 492.78C780.221 492.159 777.868 488.792 778.496 485.127C778.798 483.37 779.315 482.529 780.183 481.761C781.051 480.999 782.521 480.348 784.266 479.799C787.759 478.691 792.339 478.802 796.615 475.741C800.328 473.068 801.925 469.444 803.573 467.526C805.198 465.604 805.601 465.067 808.482 465.561L808.483 465.579Z" fill="white" fill-opacity="0.4"/>
<path d="M353.475 458.375C349.009 459.781 345.928 463.573 344.561 467.855C343.193 472.137 343.308 477.075 344.851 481.972C346.393 486.869 349.13 490.986 352.704 493.711C356.279 496.437 360.975 497.774 365.441 496.367C369.907 494.961 372.988 491.169 374.355 486.887C375.722 482.605 375.607 477.667 374.065 472.77C372.523 467.874 369.786 463.757 366.211 461.031C362.637 458.306 357.94 456.968 353.475 458.375ZM374.065 472.77C375.607 477.667 378.344 481.784 381.919 484.51C385.493 487.235 390.194 488.571 394.655 487.166C399.121 485.759 402.202 481.968 403.569 477.686C404.937 473.404 404.822 468.466 403.279 463.569C401.737 458.672 399 454.555 395.426 451.83C391.851 449.104 387.155 447.767 382.689 449.173C378.223 450.58 375.142 454.372 373.775 458.654C372.408 462.935 372.523 467.874 374.065 472.77ZM356.134 466.818C357.436 466.408 359.079 466.614 360.972 468.05C362.847 469.487 364.69 472.136 365.718 475.399C366.746 478.663 366.754 481.894 366.04 484.142C365.312 486.404 364.084 487.515 362.782 487.925C361.48 488.335 359.837 488.128 357.944 486.692C356.069 485.255 354.225 482.606 353.198 479.343C352.17 476.08 352.161 472.848 352.875 470.6C353.603 468.339 354.832 467.228 356.134 466.818ZM385.348 457.616C386.65 457.206 388.293 457.412 390.186 458.849C392.061 460.286 393.905 462.935 394.932 466.198C395.96 469.461 395.969 472.692 395.255 474.94C394.527 477.202 393.298 478.313 391.996 478.723C390.694 479.133 389.051 478.927 387.158 477.491C385.283 476.053 383.44 473.404 382.412 470.141C381.384 466.878 381.376 463.647 382.09 461.399C382.818 459.137 384.046 458.026 385.348 457.616ZM341.914 494.497C337.449 495.904 334.367 499.695 333 503.977C331.633 508.259 331.748 513.197 333.29 518.094C334.833 522.991 337.57 527.108 341.144 529.833C344.718 532.559 349.415 533.896 353.881 532.49C358.346 531.083 361.428 527.291 362.795 523.01C364.162 518.728 364.047 513.789 362.505 508.893C360.962 503.996 358.225 499.879 354.651 497.154C351.077 494.428 346.38 493.091 341.914 494.497ZM412.864 472.151C408.398 473.557 405.317 477.349 403.95 481.631C402.582 485.913 402.697 490.851 404.24 495.748C405.782 500.644 408.519 504.761 412.093 507.487C415.668 510.212 420.364 511.55 424.83 510.143C429.296 508.736 432.377 504.945 433.744 500.663C435.111 496.381 434.996 491.443 433.454 486.546C431.912 481.649 429.175 477.532 425.6 474.807C422.026 472.081 417.329 470.744 412.864 472.151ZM344.574 502.94C345.876 502.53 347.519 502.736 349.412 504.172C351.286 505.61 353.13 508.259 354.158 511.522C355.186 514.785 355.194 518.016 354.48 520.264C353.752 522.526 352.524 523.637 351.222 524.047C349.919 524.457 348.276 524.251 346.384 522.814C344.51 521.381 342.665 518.728 341.637 515.465C340.61 512.202 340.601 508.971 341.315 506.723C342.043 504.461 343.271 503.35 344.574 502.94ZM415.523 480.593C416.825 480.183 418.468 480.39 420.361 481.826C422.236 483.263 424.079 485.912 425.107 489.175C426.135 492.438 426.143 495.67 425.429 497.918C424.701 500.179 423.473 501.29 422.171 501.7C420.869 502.11 419.226 501.904 417.333 500.468C415.458 499.031 413.614 496.382 412.587 493.119C411.559 489.855 411.55 486.624 412.264 484.376C412.992 482.114 414.221 481.003 415.523 480.593ZM382.707 500.209C377.144 501.962 374.413 506.836 373.516 510.645C372.632 514.45 372.304 517.486 371.544 518.95C371.115 519.814 367.57 522.615 364.053 526.102C362.296 527.849 360.636 529.963 359.552 532.741C358.455 535.522 358.209 538.964 359.29 542.396C361.843 550.501 370.538 555.094 378.551 552.57C382.165 551.431 385.566 549.061 388.927 546.842C392.297 544.593 396.003 542.423 396.003 542.423C396.003 542.423 400.285 542.077 404.324 541.983C408.354 541.874 412.499 541.868 416.114 540.729C424.127 538.206 428.62 529.459 426.067 521.354C425.012 518.002 422.823 515.322 420.363 513.731C417.907 512.124 415.349 511.459 412.914 510.996C408.036 510.073 403.375 509.592 402.591 509.171C401.274 508.486 399.279 506.084 396.344 503.464C393.408 500.83 388.3 498.448 382.707 500.209ZM385.367 508.652C388.121 507.785 388.639 508.364 390.538 510.067C392.448 511.763 394.501 515.018 398.497 517.133C403.031 519.51 407.619 518.9 411.324 519.608C413.178 519.961 414.674 520.488 415.677 521.137C416.674 521.783 417.247 522.48 417.718 523.974C418.835 527.52 416.958 531.174 413.452 532.278C412.242 532.659 408.051 532.958 404.088 533.047C400.128 533.148 396.747 532.899 393.342 533.972C389.936 535.045 387.307 537.186 384.005 539.372C380.706 541.571 377.101 543.728 375.89 544.109C372.385 545.213 368.753 543.294 367.636 539.748C367.1 538.047 367.175 537.063 367.597 535.984C368.02 534.908 369.03 533.658 370.331 532.371C372.931 529.789 377.055 527.794 379.458 523.116C381.537 519.041 381.301 515.088 381.889 512.629C382.457 510.177 382.569 509.515 385.357 508.637L385.367 508.652Z" fill="white" fill-opacity="0.4"/>
<path d="M1310.19 -16.2337C1305.85 -14.4772 1303.08 -10.4528 1302.06 -6.0759C1301.04 -1.69895 1301.54 3.21444 1303.47 7.97338C1305.4 12.7323 1308.45 16.6189 1312.23 19.0521C1316.01 21.4854 1320.8 22.4456 1325.14 20.6891C1329.48 18.9326 1332.25 14.9082 1333.27 10.5313C1334.29 6.15434 1333.79 1.24095 1331.86 -3.518C1329.94 -8.27694 1326.88 -12.1635 1323.1 -14.5968C1319.32 -17.03 1314.53 -17.9903 1310.19 -16.2337ZM1331.86 -3.518C1333.79 1.24095 1336.84 5.1275 1340.62 7.56076C1344.4 9.99402 1349.19 10.9526 1353.53 9.19773C1357.87 7.44119 1360.64 3.41685 1361.66 -0.960093C1362.69 -5.33704 1362.18 -10.2504 1360.25 -15.0094C1358.33 -19.7683 1355.27 -23.6549 1351.49 -26.0881C1347.71 -28.5214 1342.92 -29.4816 1338.58 -27.7251C1334.25 -25.9686 1331.47 -21.9442 1330.45 -17.5673C1329.43 -13.1903 1329.94 -8.27694 1331.86 -3.518ZM1313.51 -8.02865C1314.78 -8.54084 1316.43 -8.46556 1318.43 -7.18412C1320.42 -5.90021 1322.47 -3.40601 1323.75 -0.234746C1325.03 2.93651 1325.3 6.15714 1324.76 8.45475C1324.22 10.7671 1323.08 11.9718 1321.82 12.484C1320.55 12.9962 1318.9 12.9209 1316.9 11.6395C1314.91 10.3556 1312.86 7.86139 1311.58 4.69013C1310.3 1.51887 1310.03 -1.70176 1310.57 -3.99937C1311.11 -6.31175 1312.25 -7.51646 1313.51 -8.02865ZM1341.91 -19.52C1343.17 -20.0322 1344.83 -19.9569 1346.83 -18.6755C1348.81 -17.3916 1350.86 -14.8974 1352.14 -11.7261C1353.42 -8.55486 1353.69 -5.33423 1353.16 -3.03662C1352.61 -0.724244 1351.47 0.480469 1350.21 0.992656C1348.94 1.50484 1347.29 1.42957 1345.29 0.148126C1343.3 -1.13578 1341.26 -3.62999 1339.97 -6.80125C1338.69 -9.97251 1338.42 -13.1931 1338.96 -15.4907C1339.5 -17.8031 1340.64 -19.0078 1341.91 -19.52ZM1301.54 20.6922C1297.2 22.4487 1294.43 26.473 1293.4 30.85C1292.38 35.2269 1292.89 40.1403 1294.81 44.8993C1296.74 49.6582 1299.79 53.5447 1303.57 55.978C1307.35 58.4113 1312.14 59.3715 1316.48 57.615C1320.82 55.8584 1323.59 51.8341 1324.61 47.4572C1325.64 43.0802 1325.13 38.1668 1323.2 33.4079C1321.28 28.6489 1318.22 24.7624 1314.44 22.3291C1310.66 19.8959 1305.88 18.9356 1301.54 20.6922ZM1370.49 -7.21547C1366.15 -5.45893 1363.38 -1.4346 1362.35 2.94235C1361.33 7.3193 1361.84 12.2327 1363.76 16.9916C1365.69 21.7506 1368.75 25.6371 1372.53 28.0704C1376.3 30.5036 1381.09 31.4639 1385.43 29.7074C1389.77 27.9508 1392.54 23.9265 1393.57 19.5495C1394.59 15.1726 1394.08 10.2592 1392.16 5.50026C1390.23 0.741314 1387.17 -3.14524 1383.4 -5.5785C1379.62 -8.01176 1374.83 -8.97201 1370.49 -7.21547ZM1304.86 28.8972C1306.12 28.385 1307.78 28.4603 1309.78 29.7418C1311.76 31.0257 1313.81 33.5199 1315.09 36.6911C1316.38 39.8624 1316.64 43.083 1316.11 45.3806C1315.56 47.693 1314.43 48.8977 1313.16 49.4099C1311.89 49.9221 1310.24 49.8468 1308.24 48.5654C1306.26 47.2856 1304.21 44.7873 1302.92 41.616C1301.64 38.4447 1301.38 35.2241 1301.91 32.9265C1302.46 30.6141 1303.59 29.4094 1304.86 28.8972ZM1373.81 0.989603C1375.07 0.477416 1376.73 0.552693 1378.73 1.83413C1380.71 3.11804 1382.76 5.61225 1384.04 8.78351C1385.33 11.9548 1385.59 15.1754 1385.06 17.473C1384.51 19.7854 1383.38 20.9901 1382.11 21.5023C1380.85 22.0145 1379.19 21.9392 1377.19 20.6578C1375.21 19.3738 1373.16 16.8796 1371.88 13.7084C1370.59 10.5371 1370.33 7.31649 1370.86 5.01888C1371.41 2.7065 1372.54 1.50179 1373.81 0.989603ZM1342.65 23.1485C1337.25 25.3368 1334.91 30.4122 1334.32 34.2803C1333.74 38.1436 1333.65 41.196 1333.01 42.7158C1332.65 43.611 1329.34 46.6844 1326.11 50.4405C1324.5 52.3206 1323.01 54.56 1322.15 57.4149C1321.28 60.2746 1321.31 63.725 1322.66 67.0604C1325.85 74.9372 1334.88 78.8255 1342.67 75.6735C1346.18 74.2519 1349.38 71.6192 1352.56 69.1407C1355.74 66.631 1359.26 64.1738 1359.26 64.1738C1359.26 64.1738 1363.5 63.489 1367.52 63.0749C1371.53 62.646 1375.66 62.3107 1379.17 60.8891C1386.96 57.7372 1390.74 48.6614 1387.56 40.7845C1386.24 37.5271 1383.84 35.0296 1381.26 33.6383C1378.69 32.2314 1376.09 31.7714 1373.62 31.5034C1368.69 30.9707 1364 30.8614 1363.19 30.5037C1361.82 29.9254 1359.64 27.6897 1356.51 25.3105C1353.37 22.9174 1348.09 20.9487 1342.65 23.1485ZM1345.98 31.3536C1348.65 30.2701 1349.21 30.8067 1351.24 32.354C1353.28 33.8922 1355.59 36.9747 1359.74 38.7654C1364.45 40.7752 1368.97 39.8031 1372.72 40.2145C1374.6 40.4194 1376.13 40.8254 1377.18 41.3931C1378.23 41.9583 1378.85 42.6073 1379.44 44.0596C1380.84 47.5057 1379.25 51.2968 1375.85 52.6758C1374.67 53.1519 1370.52 53.7826 1366.57 54.1852C1362.63 54.6001 1359.24 54.621 1355.93 55.9606C1352.62 57.3001 1350.17 59.6431 1347.06 62.0847C1343.94 64.5385 1340.52 66.9743 1339.34 67.4504C1335.94 68.8294 1332.16 67.2052 1330.77 63.7591C1330.1 62.1057 1330.1 61.1186 1330.43 60.0092C1330.77 58.9039 1331.67 57.5769 1332.87 56.1908C1335.26 53.4105 1339.21 51.0944 1341.23 46.2406C1342.98 42.0137 1342.43 38.0916 1342.82 35.5938C1343.2 33.1042 1343.26 32.4354 1345.96 31.3388L1345.98 31.3536Z" fill="white" fill-opacity="0.4"/>
<path d="M-64.2541 81.0602C-64.049 96.4113 -51.3211 108.804 -35.9699 108.598C-28.9921 108.505 -23.2288 105.267 -18.4082 100.945L27.7729 145.915C23.5886 150.849 20.5052 156.697 20.5985 163.675C20.8036 179.026 33.5315 191.419 48.8827 191.213C64.2339 191.008 76.6261 178.28 76.421 162.929C91.7722 162.724 104.164 149.996 103.959 134.645C103.754 119.294 91.0263 106.902 75.6751 107.107C68.6973 107.2 62.934 110.438 58.1134 114.76L11.9253 69.79C16.1166 64.8557 19.1999 59.0079 19.1067 52.0301C18.9016 36.6789 6.1737 24.2866 -9.17749 24.4918C-24.5287 24.6969 -36.9209 37.4248 -36.7158 52.776C-52.067 52.9811 -64.4592 65.709 -64.2541 81.0602ZM-50.2985 80.8737C-50.4026 73.0795 -44.3235 66.8357 -36.5293 66.7316C-35.3291 66.7156 -34.0985 66.8875 -32.5921 67.335L-28.4368 68.5846L-25.6445 65.4974L-23.7031 63.5034L-20.6916 60.6296L-22.0518 56.5092C-22.5393 55.0152 -22.7441 53.7897 -22.7602 52.5895C-22.8643 44.7953 -16.7852 38.5515 -8.99102 38.4474C-1.1968 38.3432 5.04693 44.4223 5.15108 52.2165C5.21914 57.3104 2.57485 61.5471 -1.45304 64.0854L-9.02272 68.9812L-2.61226 75.0022L53.2915 129.432L59.4815 135.672L64.1803 127.981C66.6032 123.887 70.7678 121.13 75.8616 121.062C83.6558 120.958 89.8995 127.037 90.0037 134.831C90.1078 142.626 84.0287 148.869 76.2345 148.974C75.0343 148.99 73.8037 148.818 72.2972 148.37L68.142 147.121L65.3427 150.208L63.4151 152.195L60.3968 155.076L61.757 159.203C62.2445 160.69 62.4493 161.915 62.4654 163.116C62.5695 170.91 56.4904 177.154 48.6962 177.258C40.902 177.362 34.6582 171.283 34.5541 163.489C34.486 158.395 37.1303 154.158 41.1582 151.62L48.7209 146.724L42.3174 140.703L-13.5863 86.2735L-19.7764 80.0262L-24.4752 87.7241C-26.898 91.8182 -31.0626 94.5748 -36.1564 94.6428C-43.9506 94.747 -50.1943 88.6679 -50.2985 80.8737Z" fill="white" fill-opacity="0.4"/>
</g>
<defs>
<clipPath id="clip0_7_31">
<rect width="1500" height="503" fill="white"/>
</clipPath>
</defs>
</svg>
