<svg width="421" height="159" viewBox="0 0 421 159" fill="none" xmlns="http://www.w3.org/2000/svg">
<path d="M414.852 22.7861L394.016 16.6299C391.177 10.4737 383.598 -0.89311 358.969 0.0558902C336.711 1.0012 325.817 26.5759 324.871 28.4699C323.926 30.8371 317.293 46.4659 322.977 57.8329C322.977 58.3056 323.45 58.7782 323.45 58.7782C315.399 67.3016 308.77 77.2472 303.087 86.7192L283.669 89.559C283.196 81.9809 279.88 74.879 270.884 72.508C262.36 70.1408 256.677 72.508 253.833 75.3478C246.727 81.0314 245.309 90.9768 244.836 95.2388L179.957 104.235V17.1019C179.957 13.3128 177.118 10.473 173.329 10.473H133.075C129.758 10.473 126.918 12.8402 126.446 16.1566C125.973 18.5238 116.973 69.6726 75.7737 69.6726C48.7817 69.6726 33.6257 80.5636 25.5747 89.5636C16.5786 99.5089 14.2077 109.927 14.2077 110.4V110.872V111.345V111.818V112.763V113.236V113.708C14.2077 114.181 14.6803 114.181 14.6803 114.654V115.126C14.6803 115.599 15.153 115.599 15.153 116.072C17.5163 116.556 17.5163 117.029 17.9928 117.029C18.9381 117.974 20.36 118.45 21.7819 118.45H39.3049V137.868H6.62891C2.83981 137.868 0 140.708 0 144.497C0 148.286 2.83981 151.126 6.62891 151.126H174.279C176.646 151.126 197.486 150.654 207.431 140.708C210.747 136.919 212.642 132.657 212.165 127.923C212.165 124.134 208.849 121.294 205.536 121.767C201.747 121.767 198.908 125.083 199.38 128.396C199.38 129.818 198.908 130.763 197.958 131.712C193.697 136.447 179.962 137.869 174.278 137.869H154.86V118.451H174.278H175.224L245.786 108.978C246.258 121.29 249.102 139.759 259.52 150.181C264.73 155.392 271.36 158.232 278.461 158.232H363.707C367.496 158.232 370.336 155.392 370.336 151.603C370.336 140.712 365.601 133.607 359.918 129.345L364.652 122.239L375.543 153.497C376.488 156.337 378.859 157.759 381.699 157.759H401.117C403.484 157.759 405.852 156.337 406.801 154.443C407.746 152.548 407.746 149.708 406.801 147.814L403.961 142.603L389.281 85.2977C389.754 84.3524 389.754 82.9305 389.754 81.9813C389.754 80.5594 388.808 79.1415 387.386 77.7196L390.226 63.5126H396.855H397.8C410.112 63.5126 417.691 52.1456 419.112 40.7826L420.534 28.9426C420.062 27.0481 418.167 23.7356 414.851 22.7864L414.852 22.7861ZM287.932 125.556C283.671 123.189 283.671 119.873 283.671 109.454C283.671 108.032 283.671 106.138 284.143 103.77L296.928 101.876C292.671 110.399 289.827 118.45 287.932 125.556L287.932 125.556ZM262.362 86.2471C262.835 85.7745 264.257 84.8252 268.046 85.7744C269.941 86.2471 270.886 88.6142 270.886 91.9306L259.046 93.8251C259.518 90.9813 260.468 87.669 262.362 86.2471L262.362 86.2471ZM76.7224 82.9307C115.081 82.9307 133.55 46.9387 139.234 23.7317H167.648V105.189H31.7284C36.9393 96.1926 49.2514 82.9307 76.7204 82.9307H76.7224ZM142.077 137.869H53.0424V118.451H142.077V137.869ZM268.997 140.709C261.892 133.13 259.525 117.978 259.052 106.61L270.892 105.189V108.978C270.892 123.185 271.365 131.708 284.626 137.865C284.153 140.705 283.681 143.076 283.204 144.494H278.47C274.681 144.97 271.364 143.552 268.997 140.708L268.997 140.709ZM386.447 144.97L370.818 99.5052C369.873 96.1888 366.557 94.2943 363.24 94.7708C359.451 95.7161 357.084 99.5052 358.506 103.294L359.451 106.611L348.084 123.662C347.139 119.4 345.244 116.083 342.873 113.716C340.034 110.876 335.295 111.822 333.877 115.611C332.455 118.451 332.932 121.294 334.35 124.134C335.295 125.556 335.772 127.451 335.772 129.818C335.772 133.134 338.612 136.447 341.928 136.447C342.873 136.447 344.768 136.447 347.139 137.392C347.612 137.865 348.084 137.865 348.561 137.865C351.401 138.81 354.244 141.181 355.666 144.494L296.467 144.497C298.362 136.447 302.624 117.977 312.096 99.0325L376.502 90.0364L390.709 144.497H386.448L386.447 144.97ZM405.388 40.3102C404.916 45.9938 401.599 51.6772 396.865 51.2012H384.08H383.607H382.662H382.189H381.717C381.717 51.2012 381.244 51.2012 381.244 51.6739C381.244 51.6739 380.771 51.6739 380.771 52.1465C380.771 52.1465 380.299 52.1465 380.299 52.6192L378.881 54.0372C378.881 54.0372 378.881 54.5098 378.408 54.5098C378.408 54.5098 378.408 54.9825 377.935 54.9825V55.4552V55.9278L373.674 76.7638V77.2365L320.158 84.342C324.419 78.1858 328.681 72.03 334.365 66.346C334.837 66.346 335.787 66.8186 336.732 66.8186C338.626 67.2913 340.048 67.2913 341.943 67.2913C347.626 67.2913 351.416 65.3968 353.783 63.0296C362.306 55.9241 362.779 42.1936 362.779 40.7716C362.779 36.9825 359.939 34.1427 356.15 34.1427C352.361 34.1427 349.521 36.9825 349.521 40.7716C349.521 43.1388 348.576 50.2443 345.259 52.6116C344.314 53.5569 342.892 54.0335 339.103 53.5569C336.263 53.0842 335.314 51.6624 334.842 50.7171C332.474 45.9827 335.314 36.5101 336.736 32.2481C336.736 32.2481 344.787 12.3571 359.466 11.8851C378.407 11.4125 381.251 18.514 382.673 22.3031C382.673 22.7758 382.673 22.7758 383.146 23.2484C384.091 25.1429 385.513 26.5648 387.407 27.0375L406.348 32.7211L405.388 40.3102Z" fill="#9ADBFF"/>
<path d="M382.642 32.2661C382.642 35.6645 379.885 38.4223 376.486 38.4223C373.084 38.4223 370.33 35.6645 370.33 32.2661C370.33 28.8638 373.084 26.1099 376.486 26.1099C379.885 26.1099 382.642 28.8638 382.642 32.2661Z" fill="#9ADBFF"/>
</svg>
